<mxfile host="app.diagrams.net" modified="2023-07-27T02:21:16.943Z" agent="Mozilla/5.0 (Macintosh; Intel Mac OS X 10_15_7) AppleWebKit/537.36 (KHTML, like Gecko) Chrome/91.0.4472.114 Safari/537.36" version="21.3.7" etag="ZTmpBx0SGOUp0mER5mlI" type="github">
  <diagram name="第 1 页" id="ejJT6s-s4Vd7A0Pjsa6m">
    <mxGraphModel>
      <root>
        <mxCell id="0" />
        <mxCell id="1" parent="0" />
      </root>
    </mxGraphModel>
  </diagram>
</mxfile>
